# xmcd
#
# Track frame offsets:
#	150
#	15836
#	32133
#	55199
#	77952
#	102613
#	124851
#	144769
#	178595
#	199057
#	227329
#
# Disc length: 3314 seconds
#
# Revision: 1
# Processed by: cddbd v1.5PL3 Copyright (c) Steve Scherf et al.
# Submitted via: CDex 1.50Beta5
#
DISCID=860cf00b
DTITLE=岩代太郎 - ALL ALONE
DYEAR=1900
DGENRE=
TTITLE0=ONCE IN A BLUE MOON
TTITLE1=WONDERFUL DAYS
TTITLE2=CRYPTIC SOUL
TTITLE3=IMMORTAL DRAMA
TTITLE4=THE PROMISED LAND
TTITLE5=STARS WITHOUT NAMES
TTITLE6=MOORINGS
TTITLE7=PEACE IN A FORGOTTEN AGE
TTITLE8=PRECIOUS ONES
TTITLE9=MY REFRECTION
TTITLE10=MY DEAREST LOVE
EXTD=
EXTT0=
EXTT1=
EXTT2=
EXTT3=
EXTT4=
EXTT5=
EXTT6=
EXTT7=
EXTT8=
EXTT9=
EXTT10=
PLAYORDER=
